<?xml version="1.0" encoding="UTF-8" standalone="no"?>
<svg
   xmlns:dc="http://purl.org/dc/elements/1.1/"
   xmlns:cc="http://creativecommons.org/ns#"
   xmlns:rdf="http://www.w3.org/1999/02/22-rdf-syntax-ns#"
   xmlns:svg="http://www.w3.org/2000/svg"
   xmlns="http://www.w3.org/2000/svg"
   xmlns:xlink="http://www.w3.org/1999/xlink"
   xmlns:sodipodi="http://sodipodi.sourceforge.net/DTD/sodipodi-0.dtd"
   xmlns:inkscape="http://www.inkscape.org/namespaces/inkscape"
   width="1920"
   height="1080"
   viewBox="0 0 508 285.75"
   version="1.1"
   id="svg8"
   inkscape:version="1.0.2 (e86c870, 2021-01-15)"
   sodipodi:docname="back.svg">
  <defs
     id="defs2">
    <linearGradient
       inkscape:collect="always"
       id="linearGradient1280">
      <stop
         style="stop-color:#b535a0;stop-opacity:1;"
         offset="0"
         id="stop1276" />
      <stop
         style="stop-color:#4853da;stop-opacity:1"
         offset="1"
         id="stop1278" />
    </linearGradient>
    <linearGradient
       inkscape:collect="always"
       xlink:href="#linearGradient1280"
       id="linearGradient1282"
       x1="435.82776"
       y1="-91.791481"
       x2="444.75714"
       y2="960.55585"
       gradientUnits="userSpaceOnUse"
       gradientTransform="matrix(0.45105291,0,0,0.26940262,60.639858,24.132366)" />
  </defs>
  <sodipodi:namedview
     id="base"
     pagecolor="#ffffff"
     bordercolor="#666666"
     borderopacity="1.0"
     inkscape:pageopacity="0.0"
     inkscape:pageshadow="2"
     inkscape:zoom="0.52260441"
     inkscape:cx="749.90327"
     inkscape:cy="395.43851"
     inkscape:document-units="mm"
     inkscape:current-layer="layer1"
     inkscape:document-rotation="0"
     showgrid="false"
     inkscape:window-width="1920"
     inkscape:window-height="1056"
     inkscape:window-x="0"
     inkscape:window-y="0"
     inkscape:window-maximized="1"
     units="px" />
  <metadata
     id="metadata5">
    <rdf:RDF>
      <cc:Work
         rdf:about="">
        <dc:format>image/svg+xml</dc:format>
        <dc:type
           rdf:resource="http://purl.org/dc/dcmitype/StillImage" />
        <dc:title></dc:title>
      </cc:Work>
    </rdf:RDF>
  </metadata>
  <g
     inkscape:label="Layer 1"
     inkscape:groupmode="layer"
     id="layer1">
    <path
       id="path992"
       style="fill:url(#linearGradient1282);fill-opacity:1;stroke-width:0.348589"
       d="M 0.26131451,-0.94154581 V 257.88385 L 510.02245,283.53446 V -0.94154581 Z" />
    <path
       sodipodi:type="star"
       style="fill:#deb8ee;fill-opacity:0.238537;stroke-width:0.264583"
       id="path960"
       sodipodi:sides="3"
       sodipodi:cx="20.238436"
       sodipodi:cy="160.26923"
       sodipodi:r1="115.52939"
       sodipodi:r2="55.537281"
       sodipodi:arg1="-0.03056639"
       sodipodi:arg2="1.059721"
       inkscape:flatsided="false"
       inkscape:rounded="0"
       inkscape:randomized="0"
       d="m 135.71386,156.73846 -88.311282,51.97144 -81.84412,53.32936 -0.852948,-102.46553 -5.262519,-97.54377 89.164228,50.49409 z"
       inkscape:transform-center-x="-2.7541583"
       inkscape:transform-center-y="-5.5277975"
       transform="matrix(0.85531021,0,0,0.73222925,29.386638,21.034205)" />
    <circle
       style="font-variation-settings:normal;opacity:1;vector-effect:none;fill:#f9f9f9;fill-opacity:0.835652;stroke-width:0.116183;stroke-linecap:butt;stroke-linejoin:miter;stroke-miterlimit:4;stroke-dasharray:none;stroke-dashoffset:0;stroke-opacity:1;stop-color:#000000;stop-opacity:1"
       id="path2589"
       cx="465.1532"
       cy="59.119698"
       r="0.88604075" />
    <circle
       style="font-variation-settings:normal;vector-effect:none;fill:#f9f9f9;fill-opacity:0.835652;stroke-width:0.116183;stroke-linecap:butt;stroke-linejoin:miter;stroke-miterlimit:4;stroke-dasharray:none;stroke-dashoffset:0;stroke-opacity:1;stop-color:#000000"
       id="path2589-0"
       cx="468.66803"
       cy="59.119698"
       r="0.88604075" />
    <circle
       style="font-variation-settings:normal;vector-effect:none;fill:#f9f9f9;fill-opacity:0.835652;stroke-width:0.116183;stroke-linecap:butt;stroke-linejoin:miter;stroke-miterlimit:4;stroke-dasharray:none;stroke-dashoffset:0;stroke-opacity:1;stop-color:#000000"
       id="path2589-9"
       cx="468.66803"
       cy="51.904152"
       r="0.88604075" />
    <circle
       style="font-variation-settings:normal;vector-effect:none;fill:#f9f9f9;fill-opacity:0.835652;stroke-width:0.116183;stroke-linecap:butt;stroke-linejoin:miter;stroke-miterlimit:4;stroke-dasharray:none;stroke-dashoffset:0;stroke-opacity:1;stop-color:#000000"
       id="path2589-2"
       cx="465.1532"
       cy="55.511929"
       r="0.88604075" />
    <circle
       style="font-variation-settings:normal;vector-effect:none;fill:#f9f9f9;fill-opacity:0.835652;stroke-width:0.116183;stroke-linecap:butt;stroke-linejoin:miter;stroke-miterlimit:4;stroke-dasharray:none;stroke-dashoffset:0;stroke-opacity:1;stop-color:#000000"
       id="path2589-5"
       cx="465.1532"
       cy="48.296379"
       r="0.88604075" />
    <circle
       style="font-variation-settings:normal;vector-effect:none;fill:#f9f9f9;fill-opacity:0.835652;stroke-width:0.116183;stroke-linecap:butt;stroke-linejoin:miter;stroke-miterlimit:4;stroke-dasharray:none;stroke-dashoffset:0;stroke-opacity:1;stop-color:#000000"
       id="path2589-4"
       cx="468.66803"
       cy="55.511929"
       r="0.88604075" />
    <circle
       style="font-variation-settings:normal;vector-effect:none;fill:#f9f9f9;fill-opacity:0.835652;stroke-width:0.116183;stroke-linecap:butt;stroke-linejoin:miter;stroke-miterlimit:4;stroke-dasharray:none;stroke-dashoffset:0;stroke-opacity:1;stop-color:#000000"
       id="path2589-05"
       cx="468.66803"
       cy="48.296379"
       r="0.88604075" />
    <circle
       style="font-variation-settings:normal;vector-effect:none;fill:#f9f9f9;fill-opacity:0.835652;stroke-width:0.116183;stroke-linecap:butt;stroke-linejoin:miter;stroke-miterlimit:4;stroke-dasharray:none;stroke-dashoffset:0;stroke-opacity:1;stop-color:#000000"
       id="path2589-94"
       cx="465.1532"
       cy="62.72747"
       r="0.88604075" />
    <circle
       style="font-variation-settings:normal;vector-effect:none;fill:#f9f9f9;fill-opacity:0.835652;stroke-width:0.116183;stroke-linecap:butt;stroke-linejoin:miter;stroke-miterlimit:4;stroke-dasharray:none;stroke-dashoffset:0;stroke-opacity:1;stop-color:#000000"
       id="path2589-6"
       cx="465.1532"
       cy="51.904152"
       r="0.88604075" />
    <g
       id="g3031"
       transform="matrix(0.03502632,0,0,0.03691348,458.25325,182.91457)"
       style="opacity:0.995961;fill:#f9f9f9;fill-opacity:0.835652;stroke:#ffffff;stroke-opacity:1">
      <g
         id="g2968"
         style="fill:#f9f9f9;fill-opacity:0.835652;stroke:#ffffff;stroke-opacity:1">
	<g
   id="g2966"
   style="fill:#f9f9f9;fill-opacity:0.835652;stroke:#ffffff;stroke-opacity:1">
		<g
   id="g2964"
   style="fill:#f9f9f9;fill-opacity:0.835652;stroke:#ffffff;stroke-opacity:1">
			<path
   d="m 230.659,238.939 h -0.085 c -4.71,0 -8.491,3.823 -8.491,8.533 0,4.71 3.866,8.533 8.576,8.533 4.71,0 8.533,-3.823 8.533,-8.533 0,-4.71 -3.823,-8.533 -8.533,-8.533 z"
   id="path2952"
   style="fill:#f9f9f9;fill-opacity:0.835652;stroke:#ffffff;stroke-opacity:1" />

			<path
   d="m 213.592,187.739 h -0.085 c -4.71,0 -8.491,3.823 -8.491,8.533 0,4.71 3.866,8.533 8.576,8.533 4.719,0 8.533,-3.823 8.533,-8.533 0,-4.71 -3.814,-8.533 -8.533,-8.533 z"
   id="path2954"
   style="fill:#f9f9f9;fill-opacity:0.835652;stroke:#ffffff;stroke-opacity:1" />

			<path
   d="m 281.859,187.739 h -0.085 c -4.71,0 -8.482,3.823 -8.482,8.533 0,4.71 3.857,8.533 8.568,8.533 4.71,0 8.533,-3.823 8.533,-8.533 0,-4.71 -3.824,-8.533 -8.534,-8.533 z"
   id="path2956"
   style="fill:#f9f9f9;fill-opacity:0.835652;stroke:#ffffff;stroke-opacity:1" />

			<path
   d="m 171.89,234.8 c 1.596,2.662 4.42,4.139 7.322,4.139 1.493,0 3.012,-0.393 4.386,-1.22 4.036,-2.423 5.35,-7.663 2.927,-11.708 L 153.322,170.672 H 349.87 c 4.719,0 8.533,-3.823 8.533,-8.533 0,-4.71 -3.814,-8.533 -8.533,-8.533 H 143.073 l -7.748,-12.928 c -2.423,-4.045 -7.663,-5.342 -11.708,-2.918 -4.045,2.423 -5.35,7.663 -2.927,11.708 z"
   id="path2958"
   style="fill:#f9f9f9;fill-opacity:0.835652;stroke:#ffffff;stroke-opacity:1" />

			<path
   d="M 401.069,102.405 H 116.21 L 67.373,4.724 C 65.265,0.509 60.145,-1.207 55.921,0.901 51.706,3.018 50,8.138 52.107,12.353 l 45.022,90.052 h -54.46 c -4.71,0 -8.533,3.823 -8.533,8.533 0,67.123 36.565,110.592 93.21,110.933 1.809,1.536 5.001,7.543 7.356,11.998 10.581,19.951 27.989,52.599 78.635,55.936 V 494.938 H 145.07 c -4.71,0 -8.533,3.823 -8.533,8.533 0,4.71 3.823,8.533 8.533,8.533 h 153.6 c 4.719,0 8.533,-3.823 8.533,-8.533 0,-4.71 -3.814,-8.533 -8.533,-8.533 H 230.403 V 289.806 c 50.645,-3.337 68.053,-35.985 78.635,-55.936 2.364,-4.454 5.547,-10.462 7.364,-11.998 56.644,-0.341 93.201,-43.81 93.201,-110.933 0,-4.711 -3.815,-8.534 -8.534,-8.534 z m -85.333,102.4 c -10.598,0 -15.77,9.762 -21.777,21.069 -10.556,19.917 -25.028,47.198 -72.09,47.198 -47.061,0 -61.525,-27.281 -72.09,-47.198 -5.999,-11.307 -11.179,-21.069 -21.777,-21.069 -30.481,0 -50.355,-14.08 -62.251,-34.133 h 36.651 c 4.71,0 8.533,-3.823 8.533,-8.533 0,-4.71 -3.823,-8.533 -8.533,-8.533 H 57.952 C 54.223,142.803 52.107,131.163 51.45,119.473 h 340.847 c -2.423,42.717 -23.475,85.332 -76.561,85.332 z"
   id="path2960"
   style="fill:#f9f9f9;fill-opacity:0.835652;stroke:#ffffff;stroke-opacity:1" />

			<path
   d="m 455.495,56.812 c -0.06,-0.051 -0.077,-0.128 -0.128,-0.179 -0.051,-0.06 -0.128,-0.077 -0.179,-0.128 C 441.287,42.69 422.164,34.139 401.07,34.139 c -20.181,0 -39.194,8.201 -53.316,21.837 -0.324,0.239 -0.7,0.367 -0.99,0.657 -0.256,0.256 -0.358,0.589 -0.572,0.862 -5.837,5.965 -10.863,12.791 -14.541,20.531 -2.022,4.258 -0.205,9.353 4.053,11.375 4.241,2.039 9.361,0.213 11.366,-4.053 1.724,-3.618 3.9,-6.929 6.263,-10.078 l 17.57,17.57 c 1.664,1.664 3.849,2.5 6.033,2.5 2.185,0 4.369,-0.836 6.033,-2.5 3.337,-3.336 3.337,-8.738 0,-12.066 L 365.424,63.238 c 10.163,-7.578 22.579,-12.032 35.644,-12.032 13.397,0 25.728,4.48 35.703,11.955 l -17.604,17.613 c -3.328,3.328 -3.328,8.738 0,12.066 1.672,1.664 3.849,2.5 6.033,2.5 2.185,0 4.369,-0.836 6.033,-2.5 l 17.604,-17.613 c 7.484,9.975 11.964,22.315 11.964,35.712 0,13.278 -4.42,25.668 -11.93,35.729 l -17.638,-17.63 c -3.328,-3.337 -8.73,-3.337 -12.066,0 -3.328,3.337 -3.328,8.738 0,12.066 l 17.57,17.562 c -6.144,4.599 -13.133,8.201 -20.932,10.18 -4.565,1.152 -7.339,5.794 -6.178,10.368 0.981,3.866 4.463,6.434 8.269,6.434 0.7,0 1.399,-0.085 2.108,-0.264 13.73,-3.49 25.762,-10.59 35.268,-20.07 0.034,-0.034 0.077,-0.043 0.102,-0.077 0.034,-0.034 0.043,-0.077 0.077,-0.111 13.969,-14.029 22.417,-33.28 22.417,-54.187 0.001,-21.103 -8.558,-40.226 -22.373,-54.127 z"
   id="path2962"
   style="fill:#f9f9f9;fill-opacity:0.835652;stroke:#ffffff;stroke-opacity:1" />

		</g>

	</g>

</g>
      <g
         id="g2970"
         style="fill:#f9f9f9;fill-opacity:0.835652;stroke:#ffffff;stroke-opacity:1">
</g>
      <g
         id="g2972"
         style="fill:#f9f9f9;fill-opacity:0.835652;stroke:#ffffff;stroke-opacity:1">
</g>
      <g
         id="g2974"
         style="fill:#f9f9f9;fill-opacity:0.835652;stroke:#ffffff;stroke-opacity:1">
</g>
      <g
         id="g2976"
         style="fill:#f9f9f9;fill-opacity:0.835652;stroke:#ffffff;stroke-opacity:1">
</g>
      <g
         id="g2978"
         style="fill:#f9f9f9;fill-opacity:0.835652;stroke:#ffffff;stroke-opacity:1">
</g>
      <g
         id="g2980"
         style="fill:#f9f9f9;fill-opacity:0.835652;stroke:#ffffff;stroke-opacity:1">
</g>
      <g
         id="g2982"
         style="fill:#f9f9f9;fill-opacity:0.835652;stroke:#ffffff;stroke-opacity:1">
</g>
      <g
         id="g2984"
         style="fill:#f9f9f9;fill-opacity:0.835652;stroke:#ffffff;stroke-opacity:1">
</g>
      <g
         id="g2986"
         style="fill:#f9f9f9;fill-opacity:0.835652;stroke:#ffffff;stroke-opacity:1">
</g>
      <g
         id="g2988"
         style="fill:#f9f9f9;fill-opacity:0.835652;stroke:#ffffff;stroke-opacity:1">
</g>
      <g
         id="g2990"
         style="fill:#f9f9f9;fill-opacity:0.835652;stroke:#ffffff;stroke-opacity:1">
</g>
      <g
         id="g2992"
         style="fill:#f9f9f9;fill-opacity:0.835652;stroke:#ffffff;stroke-opacity:1">
</g>
      <g
         id="g2994"
         style="fill:#f9f9f9;fill-opacity:0.835652;stroke:#ffffff;stroke-opacity:1">
</g>
      <g
         id="g2996"
         style="fill:#f9f9f9;fill-opacity:0.835652;stroke:#ffffff;stroke-opacity:1">
</g>
      <g
         id="g2998"
         style="fill:#f9f9f9;fill-opacity:0.835652;stroke:#ffffff;stroke-opacity:1">
</g>
    </g>
    <circle
       style="font-variation-settings:normal;vector-effect:none;fill:#f9f9f9;fill-opacity:0.835652;stroke-width:0.116183;stroke-linecap:butt;stroke-linejoin:miter;stroke-miterlimit:4;stroke-dasharray:none;stroke-dashoffset:0;stroke-opacity:1;stop-color:#000000"
       id="path2589-92"
       cx="127.4696"
       cy="194.23637"
       r="0.88604075" />
    <circle
       style="font-variation-settings:normal;vector-effect:none;fill:#f9f9f9;fill-opacity:0.835652;stroke-width:0.116183;stroke-linecap:butt;stroke-linejoin:miter;stroke-miterlimit:4;stroke-dasharray:none;stroke-dashoffset:0;stroke-opacity:1;stop-color:#000000"
       id="path2589-0-2"
       cx="133.21049"
       cy="194.23637"
       r="0.88604075" />
    <circle
       style="font-variation-settings:normal;vector-effect:none;fill:#f9f9f9;fill-opacity:0.835652;stroke-width:0.116183;stroke-linecap:butt;stroke-linejoin:miter;stroke-miterlimit:4;stroke-dasharray:none;stroke-dashoffset:0;stroke-opacity:1;stop-color:#000000"
       id="path2589-9-4"
       cx="127.4696"
       cy="188.28387"
       r="0.88604075" />
    <circle
       style="font-variation-settings:normal;vector-effect:none;fill:#f9f9f9;fill-opacity:0.835652;stroke-width:0.116183;stroke-linecap:butt;stroke-linejoin:miter;stroke-miterlimit:4;stroke-dasharray:none;stroke-dashoffset:0;stroke-opacity:1;stop-color:#000000"
       id="path2589-2-7"
       cx="110.24706"
       cy="194.23637"
       r="0.88604075" />
    <circle
       style="font-variation-settings:normal;vector-effect:none;fill:#f9f9f9;fill-opacity:0.835652;stroke-width:0.116183;stroke-linecap:butt;stroke-linejoin:miter;stroke-miterlimit:4;stroke-dasharray:none;stroke-dashoffset:0;stroke-opacity:1;stop-color:#000000"
       id="path2589-5-7"
       cx="133.21049"
       cy="182.33134"
       r="0.88604075" />
    <circle
       style="font-variation-settings:normal;vector-effect:none;fill:#f9f9f9;fill-opacity:0.835652;stroke-width:0.116183;stroke-linecap:butt;stroke-linejoin:miter;stroke-miterlimit:4;stroke-dasharray:none;stroke-dashoffset:0;stroke-opacity:1;stop-color:#000000"
       id="path2589-4-5"
       cx="115.98792"
       cy="194.23637"
       r="0.88604075" />
    <circle
       style="font-variation-settings:normal;vector-effect:none;fill:#f9f9f9;fill-opacity:0.835652;stroke-width:0.116183;stroke-linecap:butt;stroke-linejoin:miter;stroke-miterlimit:4;stroke-dasharray:none;stroke-dashoffset:0;stroke-opacity:1;stop-color:#000000"
       id="path2589-05-4"
       cx="138.95143"
       cy="182.33134"
       r="0.88604075" />
    <circle
       style="font-variation-settings:normal;vector-effect:none;fill:#f9f9f9;fill-opacity:0.835652;stroke-width:0.116183;stroke-linecap:butt;stroke-linejoin:miter;stroke-miterlimit:4;stroke-dasharray:none;stroke-dashoffset:0;stroke-opacity:1;stop-color:#000000"
       id="path2589-94-8"
       cx="138.95143"
       cy="194.23637"
       r="0.88604075" />
    <circle
       style="font-variation-settings:normal;vector-effect:none;fill:#f9f9f9;fill-opacity:0.835652;stroke-width:0.116183;stroke-linecap:butt;stroke-linejoin:miter;stroke-miterlimit:4;stroke-dasharray:none;stroke-dashoffset:0;stroke-opacity:1;stop-color:#000000"
       id="path2589-6-1"
       cx="121.7288"
       cy="188.28387"
       r="0.88604075" />
    <circle
       style="font-variation-settings:normal;vector-effect:none;fill:#f9f9f9;fill-opacity:0.835652;stroke-width:0.116183;stroke-linecap:butt;stroke-linejoin:miter;stroke-miterlimit:4;stroke-dasharray:none;stroke-dashoffset:0;stroke-opacity:1;stop-color:#000000"
       id="path2589-92-2"
       cx="133.21049"
       cy="188.28387"
       r="0.88604075" />
    <circle
       style="font-variation-settings:normal;vector-effect:none;fill:#f9f9f9;fill-opacity:0.835652;stroke-width:0.116183;stroke-linecap:butt;stroke-linejoin:miter;stroke-miterlimit:4;stroke-dasharray:none;stroke-dashoffset:0;stroke-opacity:1;stop-color:#000000"
       id="path2589-0-2-8"
       cx="138.95143"
       cy="188.28387"
       r="0.88604075" />
    <circle
       style="font-variation-settings:normal;vector-effect:none;fill:#f9f9f9;fill-opacity:0.835652;stroke-width:0.116183;stroke-linecap:butt;stroke-linejoin:miter;stroke-miterlimit:4;stroke-dasharray:none;stroke-dashoffset:0;stroke-opacity:1;stop-color:#000000"
       id="path2589-9-4-9"
       cx="127.4696"
       cy="182.33134"
       r="0.88604075" />
    <circle
       style="font-variation-settings:normal;vector-effect:none;fill:#f9f9f9;fill-opacity:0.835652;stroke-width:0.116183;stroke-linecap:butt;stroke-linejoin:miter;stroke-miterlimit:4;stroke-dasharray:none;stroke-dashoffset:0;stroke-opacity:1;stop-color:#000000"
       id="path2589-2-7-3"
       cx="110.24706"
       cy="188.28387"
       r="0.88604075" />
    <circle
       style="font-variation-settings:normal;vector-effect:none;fill:#f9f9f9;fill-opacity:0.835652;stroke-width:0.116183;stroke-linecap:butt;stroke-linejoin:miter;stroke-miterlimit:4;stroke-dasharray:none;stroke-dashoffset:0;stroke-opacity:1;stop-color:#000000"
       id="path2589-5-7-6"
       cx="110.24706"
       cy="182.33134"
       r="0.88604075" />
    <circle
       style="font-variation-settings:normal;vector-effect:none;fill:#f9f9f9;fill-opacity:0.835652;stroke-width:0.116183;stroke-linecap:butt;stroke-linejoin:miter;stroke-miterlimit:4;stroke-dasharray:none;stroke-dashoffset:0;stroke-opacity:1;stop-color:#000000"
       id="path2589-4-5-8"
       cx="115.98792"
       cy="188.28387"
       r="0.88604075" />
    <circle
       style="font-variation-settings:normal;vector-effect:none;fill:#f9f9f9;fill-opacity:0.835652;stroke-width:0.116183;stroke-linecap:butt;stroke-linejoin:miter;stroke-miterlimit:4;stroke-dasharray:none;stroke-dashoffset:0;stroke-opacity:1;stop-color:#000000"
       id="path2589-05-4-0"
       cx="115.98792"
       cy="182.33134"
       r="0.88604075" />
    <circle
       style="font-variation-settings:normal;vector-effect:none;fill:#f9f9f9;fill-opacity:0.835652;stroke-width:0.116183;stroke-linecap:butt;stroke-linejoin:miter;stroke-miterlimit:4;stroke-dasharray:none;stroke-dashoffset:0;stroke-opacity:1;stop-color:#000000"
       id="path2589-94-8-2"
       cx="121.7288"
       cy="194.23637"
       r="0.88604075" />
    <circle
       style="font-variation-settings:normal;vector-effect:none;fill:#f9f9f9;fill-opacity:0.835652;stroke-width:0.116183;stroke-linecap:butt;stroke-linejoin:miter;stroke-miterlimit:4;stroke-dasharray:none;stroke-dashoffset:0;stroke-opacity:1;stop-color:#000000"
       id="path2589-6-1-1"
       cx="121.7288"
       cy="182.33134"
       r="0.88604075" />
  </g>
</svg>
