<?xml version="1.0" encoding="UTF-8" standalone="no"?>
<svg
   xmlns:dc="http://purl.org/dc/elements/1.1/"
   xmlns:cc="http://creativecommons.org/ns#"
   xmlns:rdf="http://www.w3.org/1999/02/22-rdf-syntax-ns#"
   xmlns:svg="http://www.w3.org/2000/svg"
   xmlns="http://www.w3.org/2000/svg"
   xmlns:xlink="http://www.w3.org/1999/xlink"
   xmlns:sodipodi="http://sodipodi.sourceforge.net/DTD/sodipodi-0.dtd"
   xmlns:inkscape="http://www.inkscape.org/namespaces/inkscape"
   width="218.47865mm"
   height="61.655067mm"
   viewBox="0 0 218.47865 61.655067"
   version="1.1"
   id="svg8"
   inkscape:version="1.0.2 (e86c870, 2021-01-15)"
   sodipodi:docname="pageHead.svg">
  <defs
     id="defs2">
    <linearGradient
       inkscape:collect="always"
       id="linearGradient860">
      <stop
         style="stop-color:#2a50ea;stop-opacity:1;"
         offset="0"
         id="stop856" />
      <stop
         style="stop-color:#2a50ef;stop-opacity:0.7254902;"
         offset="0.43948707"
         id="stop864" />
      <stop
         style="stop-color:#2a50ff;stop-opacity:0"
         offset="1"
         id="stop858" />
    </linearGradient>
    <linearGradient
       inkscape:collect="always"
       xlink:href="#linearGradient860"
       id="linearGradient862"
       x1="397.79242"
       y1="-11.571194"
       x2="462.2518"
       y2="426.16211"
       gradientUnits="userSpaceOnUse" />
  </defs>
  <sodipodi:namedview
     id="base"
     pagecolor="#ffffff"
     bordercolor="#666666"
     borderopacity="1.0"
     inkscape:pageopacity="0.0"
     inkscape:pageshadow="2"
     inkscape:zoom="1.5633959"
     inkscape:cx="424.65377"
     inkscape:cy="231.58854"
     inkscape:document-units="mm"
     inkscape:current-layer="layer1"
     inkscape:document-rotation="0"
     showgrid="false"
     fit-margin-top="0"
     fit-margin-left="0"
     fit-margin-right="0"
     fit-margin-bottom="0"
     inkscape:window-width="1920"
     inkscape:window-height="1056"
     inkscape:window-x="0"
     inkscape:window-y="0"
     inkscape:window-maximized="1" />
  <metadata
     id="metadata5">
    <rdf:RDF>
      <cc:Work
         rdf:about="">
        <dc:format>image/svg+xml</dc:format>
        <dc:type
           rdf:resource="http://purl.org/dc/dcmitype/StillImage" />
        <dc:title></dc:title>
      </cc:Work>
    </rdf:RDF>
  </metadata>
  <g
     inkscape:label="Layer 1"
     inkscape:groupmode="layer"
     id="layer1"
     transform="translate(2.2985677,2.5264607)">
    <path
       id="path22"
       style="stroke-width:0.999999;fill:url(#linearGradient862);fill-opacity:1"
       d="M -8.6875,-9.5488281 V 161.16602 c 3.2677302,2.25059 6.5393024,4.52038 9.7734375,6.63086 4.5907152,2.99572 9.1484285,5.85145 13.6738285,8.57226 4.525399,2.72081 9.019554,5.30517 13.482422,7.75977 4.462867,2.45459 8.893753,4.77949 13.296874,6.97656 4.403122,2.19707 8.776888,4.26661 13.123047,6.21484 4.346159,1.94824 8.66505,3.77433 12.957032,5.48242 4.291981,1.7081 8.558239,3.29874 12.798828,4.77539 4.240588,1.47666 8.456457,2.83985 12.648437,4.09376 4.191981,1.2539 8.359704,2.39765 12.505864,3.4375 4.14615,1.03984 8.26992,1.97605 12.37304,2.81054 4.10312,0.83449 8.18519,1.56726 12.24805,2.20508 4.06286,0.63782 8.10742,1.18101 12.13281,1.63086 4.0254,0.44985 8.03273,0.80755 12.02344,1.07812 3.99071,0.27058 7.96307,0.45275 11.92187,0.55274 7.91762,0.19997 15.77531,0.0689 23.58204,-0.36133 7.80672,-0.43019 15.56314,-1.15958 23.28125,-2.15039 7.7181,-0.99081 15.39705,-2.24469 23.04882,-3.72656 7.65177,-1.48188 15.27706,-3.19037 22.88477,-5.09375 7.60771,-1.90339 15.19923,-4.00052 22.78516,-6.25586 7.58592,-2.25534 15.16553,-4.66929 22.75195,-7.20703 7.58641,-2.53774 15.17988,-5.20059 22.78906,-7.95118 15.21837,-5.50117 30.50416,-11.35771 45.94727,-17.29296 15.44311,-5.93525 31.0426,-11.94883 46.88867,-17.76172 7.92303,-2.90645 15.90765,-5.76168 23.96484,-8.53321 8.05719,-2.77152 16.18677,-5.45834 24.40039,-8.02539 8.21363,-2.56705 16.51197,-5.01557 24.9043,-7.30859 8.39233,-2.29302 16.87934,-4.43142 25.47266,-6.38086 8.59332,-1.94944 17.29279,-3.70979 26.10937,-5.24609 8.81658,-1.53631 17.75038,-2.84873 26.8125,-3.90235 9.06213,-1.05361 18.25209,-1.84823 27.58203,-2.34961 9.32995,-0.50137 18.79989,-0.70831 28.41992,-0.58789 4.81002,0.0602 9.65625,0.20099 14.54297,0.42969 4.88672,0.2287 9.81309,0.54529 14.7793,0.95117 4.96621,0.40589 9.97301,0.90238 15.02148,1.49414 5.04848,0.59177 10.13796,1.27812 15.27149,2.06446 5.13353,0.78633 10.31183,1.6725 15.5332,2.66211 5.22137,0.9896 10.48684,2.08359 15.79883,3.28515 5.31199,1.20157 10.67077,2.51137 16.07617,3.9336 5.4054,1.42222 10.85778,2.95585 16.35938,4.60742 5.50159,1.65157 11.05177,3.42093 16.65234,5.31054 5.60057,1.88962 11.25079,3.89881 16.95313,6.03516 5.70233,2.13636 11.45678,4.39923 17.26367,6.79102 4.92486,2.02849 9.90824,4.19996 14.91015,6.41797 V -9.5488281 Z"
       transform="scale(0.26458333)" />
  </g>
</svg>
